<svg width="35" height="17" viewBox="0 0 35 17" fill="none" xmlns="http://www.w3.org/2000/svg">
<path d="M16.2891 0.689453L14.4629 16.5H9.32617C8.85742 14.0716 8.44401 11.3112 8.08594 8.21875C7.92318 9.54036 7.54232 12.3008 6.94336 16.5H1.83594L0 0.689453H3.99414L4.41406 6.20703L4.84375 11.5293C4.99349 8.77539 5.37109 5.16211 5.97656 0.689453H10.2539C10.3125 1.15169 10.4622 2.88997 10.7031 5.9043L11.1523 11.9102C11.3802 8.08854 11.7611 4.34831 12.2949 0.689453H16.2891ZM22.2207 0.689453V16.5H18.1094V0.689453H22.2207ZM34.0508 0.689453V16.5H30.4473L28.3086 9.3125V16.5H24.8711V0.689453H28.3086L30.6133 7.80859V0.689453H34.0508Z" fill="url(#paint0_linear_13_211)"/>
<path d="M16.2891 0.689453L17.2825 0.804194L17.4112 -0.310547H16.2891V0.689453ZM14.4629 16.5V17.5H15.354L15.4563 16.6147L14.4629 16.5ZM9.32617 16.5L8.3443 16.6895L8.50074 17.5H9.32617V16.5ZM8.08594 8.21875L9.0793 8.10373L7.09344 8.09652L8.08594 8.21875ZM6.94336 16.5V17.5H7.81084L7.93334 16.6412L6.94336 16.5ZM1.83594 16.5L0.842612 16.6153L0.945339 17.5H1.83594V16.5ZM0 0.689453V-0.310547H-1.12284L-0.993325 0.804799L0 0.689453ZM3.99414 0.689453L4.99126 0.613566L4.92093 -0.310547H3.99414V0.689453ZM4.41406 6.20703L3.41694 6.28292L3.41731 6.2875L4.41406 6.20703ZM4.84375 11.5293L3.84699 11.6098L5.84228 11.5836L4.84375 11.5293ZM5.97656 0.689453V-0.310547H5.10281L4.9856 0.555306L5.97656 0.689453ZM10.2539 0.689453L11.246 0.563699L11.1351 -0.310547H10.2539V0.689453ZM10.7031 5.9043L11.7004 5.82971L11.6999 5.82464L10.7031 5.9043ZM11.1523 11.9102L10.1551 11.9847L12.1506 11.9697L11.1523 11.9102ZM12.2949 0.689453V-0.310547H11.4302L11.3054 0.545074L12.2949 0.689453ZM15.2957 0.574713L13.4695 16.3853L15.4563 16.6147L17.2825 0.804194L15.2957 0.574713ZM14.4629 15.5H9.32617V17.5H14.4629V15.5ZM10.308 16.3105C9.84509 13.9121 9.43518 11.1773 9.0793 8.10373L7.09257 8.33377C7.45284 11.4451 7.86975 14.2311 8.3443 16.6895L10.308 16.3105ZM7.09344 8.09652C6.93206 9.40691 6.55262 12.1576 5.95338 16.3588L7.93334 16.6412C8.53201 12.444 8.9143 9.67381 9.07844 8.34098L7.09344 8.09652ZM6.94336 15.5H1.83594V17.5H6.94336V15.5ZM2.82926 16.3847L0.993325 0.574107L-0.993325 0.804799L0.842612 16.6153L2.82926 16.3847ZM0 1.68945H3.99414V-0.310547H0V1.68945ZM2.99702 0.76534L3.41695 6.28292L5.41118 6.13114L4.99126 0.613566L2.99702 0.76534ZM3.41731 6.2875L3.84699 11.6098L5.84051 11.4488L5.41082 6.12656L3.41731 6.2875ZM5.84228 11.5836C5.98994 8.86775 6.3637 5.28411 6.96752 0.823601L4.9856 0.555306C4.37849 5.04011 3.99703 8.68304 3.84522 11.475L5.84228 11.5836ZM5.97656 1.68945H10.2539V-0.310547H5.97656V1.68945ZM9.26184 0.815207C9.31669 1.24788 9.46418 2.95418 9.7063 5.98396L11.6999 5.82464C11.4603 2.82577 11.3083 1.0555 11.246 0.563699L9.26184 0.815207ZM9.70591 5.97889L10.1551 11.9847L12.1496 11.8356L11.7003 5.82971L9.70591 5.97889ZM12.1506 11.9697C12.3768 8.17546 12.7548 4.46356 13.2844 0.833832L11.3054 0.545074C10.7673 4.23305 10.3836 8.00162 10.1541 11.8506L12.1506 11.9697ZM12.2949 1.68945H16.2891V-0.310547H12.2949V1.68945ZM22.2207 0.689453H23.2207V-0.310547H22.2207V0.689453ZM22.2207 16.5V17.5H23.2207V16.5H22.2207ZM18.1094 16.5H17.1094V17.5H18.1094V16.5ZM18.1094 0.689453V-0.310547H17.1094V0.689453H18.1094ZM21.2207 0.689453V16.5H23.2207V0.689453H21.2207ZM22.2207 15.5H18.1094V17.5H22.2207V15.5ZM19.1094 16.5V0.689453H17.1094V16.5H19.1094ZM18.1094 1.68945H22.2207V-0.310547H18.1094V1.68945ZM34.0508 0.689453H35.0508V-0.310547H34.0508V0.689453ZM34.0508 16.5V17.5H35.0508V16.5H34.0508ZM30.4473 16.5L29.4888 16.7852L29.7015 17.5H30.4473V16.5ZM28.3086 9.3125L29.2671 9.0273L27.3086 9.3125H28.3086ZM28.3086 16.5V17.5H29.3086V16.5H28.3086ZM24.8711 16.5H23.8711V17.5H24.8711V16.5ZM24.8711 0.689453V-0.310547H23.8711V0.689453H24.8711ZM28.3086 0.689453L29.26 0.381459L29.036 -0.310547H28.3086V0.689453ZM30.6133 7.80859L29.6619 8.11659L31.6133 7.80859H30.6133ZM30.6133 0.689453V-0.310547H29.6133V0.689453H30.6133ZM33.0508 0.689453V16.5H35.0508V0.689453H33.0508ZM34.0508 15.5H30.4473V17.5H34.0508V15.5ZM31.4057 16.2148L29.2671 9.0273L27.3501 9.5977L29.4888 16.7852L31.4057 16.2148ZM27.3086 9.3125V16.5H29.3086V9.3125H27.3086ZM28.3086 15.5H24.8711V17.5H28.3086V15.5ZM25.8711 16.5V0.689453H23.8711V16.5H25.8711ZM24.8711 1.68945H28.3086V-0.310547H24.8711V1.68945ZM27.3572 0.997447L29.6619 8.11659L31.5647 7.5006L29.26 0.381459L27.3572 0.997447ZM31.6133 7.80859V0.689453H29.6133V7.80859H31.6133ZM30.6133 1.68945H34.0508V-0.310547H30.6133V1.68945Z" fill="#00E0FF" fill-opacity="0.28"/>
<defs>
<linearGradient id="paint0_linear_13_211" x1="19" y1="0.5" x2="19" y2="17.5" gradientUnits="userSpaceOnUse">
<stop stop-color="white"/>
<stop offset="1" stop-color="#1DC9FF"/>
</linearGradient>
</defs>
</svg>
